<svg width="180" height="89" viewBox="0 0 180 89" fill="none" xmlns="http://www.w3.org/2000/svg">
<path d="M25.206 55.1719C28.466 55.1719 29.8688 56.5637 29.8688 58.975V67.8947H28.0214V66.2186C27.1324 67.4831 25.6506 68.1104 23.9317 68.1104C21.1657 68.1104 20 66.5029 20 64.4445C20 62.3861 21.225 61.0334 23.7242 60.6413L26.589 60.1806C27.6065 60.0532 27.9424 59.6611 27.9424 58.8084C27.9424 57.6714 27.2114 56.8676 25.1764 56.8676C23.4081 56.8676 22.7265 57.4655 22.5684 58.5731H20.6125C20.7903 56.6618 22.1535 55.1915 25.1962 55.1915L25.206 55.1719ZM26.589 61.8176L24.1885 62.1802C22.7561 62.3861 21.9263 63.1604 21.9263 64.2974C21.9263 65.6109 22.6771 66.4147 24.3466 66.4147C26.2532 66.4147 27.9128 65.3266 27.9128 63.1604V61.5039C27.6263 61.6313 27.1324 61.7097 26.589 61.8176Z" fill="#1E73AF"/>
<path d="M33.3555 55.4863H35.3114V67.8955H33.3555V55.4863Z" fill="#1E73AF"/>
<path d="M41.1207 55.4855V57.093C41.6641 56.0344 42.7112 55.1816 44.6672 55.1816C44.7956 55.1816 45.0327 55.1816 45.1907 55.211V57.1224C44.7956 57.0734 44.5684 57.0734 44.2226 57.0734C42.4741 57.0734 41.2294 58.2594 41.2294 60.0728V67.9045H39.2734V55.4953H41.1207V55.4855Z" fill="#1E73AF"/>
<path d="M48.1152 49.8008H50.0712V67.8951H48.1152V49.8008Z" fill="#1E73AF"/>
<path d="M53.8242 55.4863H55.7802V67.8955H53.8242V55.4863Z" fill="#1E73AF"/>
<path d="M59.8496 55.4855H61.6969V56.8774C62.2402 55.9168 63.2874 55.1719 65.3224 55.1719C68.0884 55.1719 69.8567 56.5441 69.8567 60.0042V67.8849H67.8809V60.2591C67.8809 57.7792 66.735 56.9754 64.8581 56.9754C62.9811 56.9754 61.8056 57.7792 61.8056 60.2591V67.8849H59.8496V55.4757V55.4855Z" fill="#1E73AF"/>
<path d="M83.4703 62.2303H74.5302C74.6586 64.9454 75.7848 66.4941 78.0964 66.4941C79.7165 66.4941 80.6451 66.004 81.1983 64.6611H83.2333C82.6307 67.0136 80.8624 68.1996 78.0964 68.1996C74.3425 68.1996 72.5742 65.7197 72.5742 61.6814C72.5742 57.643 74.3227 55.1631 78.0667 55.1631C81.8107 55.1631 83.4901 57.4371 83.4901 61.4167C83.4901 61.701 83.4901 61.9068 83.4605 62.2205L83.4703 62.2303ZM81.5144 60.6031C81.3366 57.9664 80.24 56.8588 78.0766 56.8588C75.9132 56.8588 74.8167 58.1723 74.5895 60.6031H81.5144Z" fill="#1E73AF"/>
<path d="M95.1565 58.5643H93.1808C92.9239 57.3489 92.1435 56.8588 90.6321 56.8588C89.0219 56.8588 88.1822 57.5351 88.1822 58.6918C88.1822 59.5935 88.6465 60.2405 89.9505 60.4463L91.7187 60.7306C94.2674 61.1422 95.4133 62.2597 95.4133 64.3475C95.4133 66.9548 93.5068 68.1996 90.4938 68.1996C87.1844 68.1996 85.8805 66.8273 85.5742 64.6611H87.5499C87.7574 65.8472 88.5181 66.5235 90.4938 66.5235C92.6276 66.5235 93.408 65.6413 93.408 64.5043C93.408 63.4457 92.8844 62.7988 91.3532 62.5635L89.5849 62.2499C87.3227 61.8872 86.1768 60.7208 86.1768 58.8094C86.1768 56.6334 87.7179 55.1631 90.6321 55.1631C93.3191 55.1631 94.8799 56.3295 95.1664 58.5447L95.1565 58.5643Z" fill="#1E73AF"/>
<path d="M35.4594 51.928C35.4594 52.5455 34.9555 53.0454 34.3332 53.0454C33.7108 53.0454 33.207 52.5455 33.207 51.928C33.207 51.3104 33.7108 50.8105 34.3332 50.8105C34.9555 50.8105 35.4594 51.3104 35.4594 51.928Z" fill="#1E73AF"/>
<path d="M55.9183 51.928C55.9183 52.5455 55.4145 53.0454 54.7922 53.0454C54.1698 53.0454 53.666 52.5455 53.666 51.928C53.666 51.3104 54.1698 50.8105 54.7922 50.8105C55.4145 50.8105 55.9183 51.3104 55.9183 51.928Z" fill="#1E73AF"/>
<path d="M33.6621 20.1992V28.4034C32.4866 27.2762 30.7875 26.5705 28.4462 26.5705C22.2622 26.5705 20.0198 30.2364 20 35.9019V36.0587C20.0198 41.7242 22.2622 45.3803 28.4462 45.3803C31.0344 45.3803 32.8126 44.5373 33.9881 43.1945V44.851H39.0262V20.1992H33.672H33.6621ZM29.6119 40.6558C26.6681 40.6558 25.4234 38.9306 25.4234 35.9705C25.4234 33.0103 26.6681 31.2852 29.6119 31.2852C32.5557 31.2852 33.8004 33.0103 33.8004 35.9705C33.8004 38.9306 32.5557 40.6558 29.6119 40.6558Z" fill="#1E73AF"/>
<path d="M148.402 29.1482H148.362V27.1094H143.324V44.8606H148.678V34.8627C148.678 32.569 150.101 31.6183 152.017 31.6183C152.729 31.6183 153.47 31.6575 154.289 31.7555V26.6487C154.072 26.6095 153.509 26.5801 153.292 26.5801C150.595 26.5801 149.103 27.7759 148.392 29.1482H148.402Z" fill="#1E73AF"/>
<path d="M141.655 35.9409C141.655 30.3048 139.067 26.5703 132.567 26.5703C125.642 26.5703 123.479 31.2164 123.479 35.9703C123.479 41.6064 126.106 45.3704 132.843 45.3704C138.168 45.3704 140.974 42.8317 141.29 39.3814H136.005C135.689 40.5478 134.869 41.1065 132.843 41.1065C130.176 41.1065 129.05 40.0871 128.793 37.4112H141.566C141.635 36.9211 141.635 36.3526 141.635 35.9311L141.655 35.9409ZM128.882 33.7551C129.238 31.6379 130.265 30.6871 132.577 30.6871C135.204 30.6871 135.985 31.9222 136.192 33.7551H128.882Z" fill="#1E73AF"/>
<path d="M95.3541 26.5801C88.5378 26.5801 85.7422 30.3146 85.7422 35.9801C85.7422 41.6456 88.5477 45.3801 95.3541 45.3801C102.16 45.3801 104.976 41.6456 104.976 35.9801C104.976 30.3146 102.17 26.5801 95.3541 26.5801ZM95.3541 40.6654C92.4103 40.6654 91.1656 38.9403 91.1656 35.9801C91.1656 33.0199 92.4103 31.2948 95.3541 31.2948C98.2979 31.2948 99.5426 33.0199 99.5426 35.9801C99.5426 38.9403 98.2979 40.6654 95.3541 40.6654Z" fill="#1E73AF"/>
<path d="M66.3008 35.9802C66.3008 41.2242 68.9285 45.3802 75.6657 45.3802C81.3756 45.3802 83.9737 42.7729 84.5071 38.4405H79.1529C78.7973 39.9205 77.7699 40.6557 75.6756 40.6557C73.2257 40.6557 71.734 39.0384 71.734 35.9704C71.734 32.9024 73.2257 31.2851 75.6756 31.2851C77.7699 31.2851 78.7973 32.03 79.1529 33.5003H84.5071C83.9737 29.1679 81.3855 26.5605 75.6657 26.5605C68.9186 26.5605 66.3008 30.7166 66.3008 35.9606V35.9802Z" fill="#1E73AF"/>
<path d="M49.0529 32.4612C49.0529 35.9801 51.325 37.4994 55.2666 38.0287L57.1435 38.2737C58.9909 38.5188 59.7021 38.9402 59.7021 39.8616C59.7021 40.8516 58.8526 41.3417 56.7583 41.3417C54.664 41.3417 53.7749 40.7046 53.6366 39.4009H48.3516C48.4602 42.959 50.6236 45.3899 56.7583 45.3899C62.5768 45.3899 65.0662 43.1747 65.0662 39.4401C65.0662 35.7056 62.7941 34.3333 58.25 33.7354L56.373 33.4904C54.8517 33.2747 54.417 32.8533 54.417 32.0789C54.417 31.3046 55.0888 30.7066 56.8669 30.7066C58.6451 30.7066 59.2477 31.3438 59.4255 32.3632H64.6414C64.3945 28.5208 61.8063 26.5898 56.8669 26.5898C51.2954 26.5898 49.0628 29.0501 49.0628 32.471L49.0529 32.4612Z" fill="#1E73AF"/>
<path d="M118.382 27.1094L114.233 39.2147L110.084 27.1094H104.295L111.003 44.8508H117.463L124.171 27.1094H118.382Z" fill="#1E73AF"/>
<path d="M46.7214 27.1094H41.3672V44.8606H46.7214V27.1094Z" fill="#1E73AF"/>
<path d="M153.5 42.3322C153.5 44.1162 154.952 45.5571 156.75 45.5571C158.548 45.5571 160 44.1162 160 42.3322C160 40.5483 158.548 39.1074 156.75 39.1074C154.952 39.1074 153.5 40.5483 153.5 42.3322Z" fill="#FFCD00"/>
</svg>
